<?xml version="1.0" encoding="utf-8"?>
<!-- Generator: Adobe Illustrator 21.0.0, SVG Export Plug-In . SVG Version: 6.00 Build 0)  -->
<svg version="1.1" id="Layer_1" xmlns="http://www.w3.org/2000/svg" xmlns:xlink="http://www.w3.org/1999/xlink" x="0px" y="0px"
	 viewBox="0 0 2000 1500" style="enable-background:new 0 0 2000 1500;" xml:space="preserve">
<style type="text/css">
	.st0{fill:#EDDA3B;}
	.st1{fill:#31ABCD;}
	.st2{fill:none;stroke:#1A70AD;stroke-width:18.3163;stroke-miterlimit:10;}
	.st3{fill:#2AA4CA;}
	.st4{fill:#A9D9E9;}
	.st5{fill:#4D4D4D;}
	.st6{fill:#999999;}
	.st7{fill:#FFFFFF;}
	.st8{fill:#1C3192;}
	.st9{opacity:0.48;fill:#DFDBCC;}
	.st10{fill:#B3B3B3;}
	.st11{fill:#1A5BA6;}
</style>
<g>
	<path class="st0" d="M1076.473,724.536c6.107,64.361-38.041-9.882-68.764,1.633c-24.817,9.301-65.87,49.076-62.488,7.636
		c2.669-32.701,29.561-61.302,62.271-63.861C1040.203,667.384,1073.374,691.872,1076.473,724.536z"/>
	<g>
		<g>
			<path class="st1" d="M812.9,788.406c8.424-5.384,16.922-10.634,25.403-15.915c8.469-5.303,16.989-10.513,25.509-15.724
				l25.641-15.484l12.702-7.956c4.25-2.624,8.542-5.171,12.948-7.512l2.973-1.579l2.743,1.622c3.506,2.074,6.93,4.291,10.345,6.523
				c3.403,2.253,6.779,4.554,10.109,6.934c3.327,2.386,6.617,4.836,9.85,7.386c3.22,2.573,6.428,5.167,9.477,8.037l-0.558,0.974
				c-4.017-1.182-7.876-2.642-11.723-4.121c-3.833-1.503-7.61-3.106-11.349-4.772c-3.736-1.673-7.427-3.425-11.09-5.224
				c-3.651-1.821-7.294-3.657-10.854-5.636l5.716,0.043c-4.323,2.492-8.76,4.777-13.24,6.985l-13.486,6.54l-26.734,13.51
				c-8.938,4.454-17.877,8.908-26.867,13.27c-8.978,4.384-17.938,8.798-26.973,13.079L812.9,788.406z"/>
		</g>
		<g>
			<path class="st1" d="M912.081,779.761l12.125-7.487l12.163-7.42l24.331-14.831l24.398-14.712l24.456-14.611l1.724-1.03
				l1.995,0.989l23.634,11.711c7.856,3.943,15.567,8.16,23.175,12.566c7.602,4.418,15.146,8.943,22.567,13.697
				c7.435,4.728,14.797,9.593,21.928,14.888l-0.442,0.824c-8.353-3.019-16.475-6.468-24.524-10.053
				c-8.063-3.56-16.003-7.347-23.885-11.244c-7.876-3.907-15.65-8.005-23.277-12.375l-22.819-13.229l3.719-0.042l-25.114,13.448
				l-25.172,13.346l-25.239,13.227l-12.622,6.609l-12.66,6.542L912.081,779.761z"/>
		</g>
		<g>
			<path class="st1" d="M1193.92,780.579c-15.75-7.328-31.402-14.838-47.009-22.432l-23.355-11.495
				c-7.796-3.811-15.79-7.254-23.376-11.456l4.638-0.017c-3.245,1.742-6.554,3.367-9.88,4.958
				c-3.337,1.574-6.686,3.125-10.086,4.582c-3.396,1.464-6.825,2.87-10.302,4.188c-3.487,1.299-6.988,2.572-10.617,3.612
				l-0.449-0.821c2.834-2.494,5.795-4.754,8.771-6.988c2.986-2.216,6.02-4.343,9.086-6.412c3.062-2.077,6.175-4.059,9.301-6.018
				c3.135-1.942,6.289-3.85,9.507-5.641l2.258-1.257l2.38,1.241c7.69,4.008,14.973,8.775,22.453,13.173l22.474,13.134
				c14.945,8.825,29.845,17.734,44.648,26.826L1193.92,780.579z"/>
		</g>
	</g>
	<g>
		<ellipse class="st2" cx="1007.709" cy="580.647" rx="280.736" ry="274.802"/>
		<path class="st3" d="M795.64,433.816c59.127-105.959,293.767-187.577,426.018,5.642h-36.191
			c8.789-13.046-29.987-28.56-48.599-11.283c9.272-9.567-24.817-36.317-56.871-21.508c-9.306-28.56-94.613-40.901-120.566,14.676
			c0,0-43.844-12.561-52.117,21.993h-35.157c0,0-28.953-35.259-69.28-7.052L795.64,433.816z"/>
	</g>
	<g>
		<g>
			<path class="st4" d="M953.582,584.521c-5.521-11.435-52.902-25.853-56.296,20.665c0,0-23.713-2.351-24.601,26.546
				c-28.589,8.777-3.191,42.921,14.057,17.762c0,0,24.37,6.932,31.454-16.381c0,0,36.807,10.901,41.966-30.836
				c20.495,10.005,25.824-8.021,24.556-16.83C983.761,578.798,966.33,565.07,953.582,584.521z"/>
			<path class="st4" d="M1335.155,367.12c-5.659-15.109-63.939-38.851-73.631,19.616c0,0-29.731-5.727-34.208,30.735
				c-37.193,7.789-9.018,53.938,15.725,24.106c0,0,30.032,11.599,41.7-17.078c0,0,45.308,18.064,56.679-34.148
				c24.773,15.038,33.606-7.153,33.025-18.446C1374.006,363.381,1353.543,343.988,1335.155,367.12z"/>
			<path class="st4" d="M1213.305,327.011c0,0-16.678-15.204-37.756,4.163c-15.261-22.307-71.727-6.383-58.401,36.318
				c0,0-24.002,4.453-26.577,28.411l62.841-3.26l24.344-23.709L1213.305,327.011z"/>
		</g>
		<path class="st5" d="M1207.172,484.155c19.746-9.65,7.684-36.671,2.114-45.418l4.23-7.277
			c11.402-14.103,131.125-59.634,134.185-97.412c3.396-41.915-49.603-29.718-52.845-30.776c0,0-27.292-9.749-41.585-4.102
			c-14.294,5.647-119.661,83.34-119.661,83.34s-37.35,5.36-77.416,16.862c-23.853,14.211-33.211,24.185-33.211,24.185l47.827,2.487
			c0,0-73.665,58.04-91.883,66.408c-18.219,8.368-72.002-20.595-97.258,3.887c-22.548,8.27-22.458,13.913-22.458,13.913
			s56.613,23.621,61.448,27.243c2.724,8.959,16.825,17.005,22.965,14.686c-6.636,13.899-14.784,27.295-14.784,27.295
			s20.339,1.397,46.496-31.845c7.047-1.011,13.191,1.703,32.718-7.572c19.527-9.275,77.1-39.113,77.1-39.113l-40.72,92.151
			c0,0,27.99-0.42,51.436-22.485c10.654-10.026,26.749-28.704,41.896-47.897L1207.172,484.155z"/>
		<path class="st6" d="M881.668,496.34c-22.548,8.27-22.458,13.913-22.458,13.913s56.613,23.621,61.448,27.243
			c2.724,8.959,16.825,17.005,22.965,14.686c-6.636,13.899-14.784,27.295-14.784,27.295s20.339,1.397,46.496-31.845
			c0,0,3.789-5.339,6.673-8.629c6.443-1.883,90.452-47.982,112.459-61.689l-9.315,23.633l-40.72,92.151
			c0,0,27.99-0.42,51.436-22.485c23.446-22.064,73.244-86.03,81.287-105.165c-5.325,18.026,9.18,28.891,30.016,18.709
			c19.746-9.65,7.684-36.671,2.114-45.418c0,0-6.108-9.15-15.102-8.339l5.703-3.695c0,0,145.273-76.946,147.814-92.654
			c4.673-40.948-49.603-29.718-52.845-30.776c0,0-27.292-9.749-41.585-4.102c-14.294,5.647-119.661,83.34-119.661,83.34
			l-62.8,43.535c0,0-73.665,58.04-91.883,66.408C960.707,500.821,906.924,471.858,881.668,496.34
			c-22.548,8.27-22.458,13.913-22.458,13.913"/>
		<path class="st7" d="M1293.987,310.589c0,0-26.99-10.991-35.982-6.824c-8.992,4.167-264.683,187.102-281.992,200.134
			c-15.641-2.071-70.152-14.388-82.768-8.741l78.154,36.735c21.148,7.035,96.155-51.677,129.44-63.646l-44.229,116.15
			c0,0,33.821-14.922,44.685-29.428c10.865-14.505,70.34-114.622,84.692-134.902c15.297-10.346,140.424-72.372,147.875-102.253
			C1337.211,304.387,1302.242,307.966,1293.987,310.589z"/>
		<path class="st8" d="M1293.987,310.589l-30.93,21.7c0,0-9.403-8.72-2.427-16.913c6.976-8.193,13.621-11.078,13.621-11.078
			L1293.987,310.589z"/>
		<path class="st8" d="M966.307,546.528l-21.405,11.223l-10.615,18.969C934.287,576.72,959.27,564.32,966.307,546.528z"/>
		<path class="st8" d="M1256.227,358.202c0,0-262.825,170.957-287.217,172.567c-4.254,4.953-56.755-13.406-90.257-26.34
			c0,0,7.824-7.933,14.493-9.272c0,0,77.808,20.961,84.586,18.07c6.778-2.89,228.46-148.819,246.981-156.751
			C1243.333,348.545,1253.876,355.183,1256.227,358.202z"/>
		<path class="st9" d="M1246.159,358.209c0,0-262.685,160.923-267.114,163.476s-66.261-17.344-66.261-17.344l65.117,12.713
			c0,0,243.02-157.621,248.256-157.893C1231.392,358.889,1238.637,352.575,1246.159,358.209z"/>
		<g>
			<path class="st10" d="M1219.608,363.609L1219.608,363.609c2.338-1.425,3.085-4.504,1.66-6.841l-2.112-3.465
				c-1.425-2.338-4.504-3.085-6.841-1.66l0,0c-2.338,1.425-3.085,4.504-1.66,6.841l2.112,3.465
				C1214.191,364.287,1217.27,365.034,1219.608,363.609z"/>
			<path class="st10" d="M1205.267,373.938L1205.267,373.938c2.338-1.425,3.085-4.504,1.66-6.841l-2.112-3.465
				c-1.425-2.338-4.504-3.085-6.842-1.66l0,0c-2.338,1.425-3.085,4.504-1.66,6.841l2.112,3.465
				C1199.85,374.616,1202.929,375.363,1205.267,373.938z"/>
			<path class="st10" d="M1190.926,384.267L1190.926,384.267c2.338-1.425,3.085-4.504,1.66-6.841l-2.112-3.465
				c-1.425-2.338-4.504-3.085-6.842-1.66l0,0c-2.338,1.425-3.085,4.504-1.66,6.841l2.112,3.465
				C1185.509,384.945,1188.588,385.692,1190.926,384.267z"/>
			<path class="st10" d="M1176.584,394.596L1176.584,394.596c2.338-1.425,3.085-4.504,1.66-6.841l-2.112-3.465
				c-1.425-2.338-4.504-3.085-6.841-1.66l0,0c-2.338,1.425-3.085,4.504-1.66,6.841l2.112,3.465
				C1171.168,395.274,1174.247,396.021,1176.584,394.596z"/>
			<path class="st10" d="M1162.244,404.925L1162.244,404.925c2.338-1.425,3.085-4.504,1.66-6.841l-2.112-3.465
				c-1.425-2.338-4.504-3.085-6.841-1.66l0,0c-2.338,1.425-3.085,4.504-1.66,6.841l2.112,3.465
				C1156.827,405.603,1159.906,406.35,1162.244,404.925z"/>
			<path class="st10" d="M1144.93,412.085L1144.93,412.085c2.338-1.425,3.085-4.504,1.66-6.841l-2.112-3.465
				c-1.425-2.338-4.504-3.085-6.841-1.66l0,0c-2.338,1.425-3.085,4.504-1.66,6.841l2.112,3.465
				C1139.514,412.763,1142.593,413.51,1144.93,412.085z"/>
			<path class="st10" d="M1129.308,421.607l1.151-0.702c2.021-1.232,2.667-3.894,1.435-5.915l-2.814-4.616
				c-1.232-2.021-3.894-2.667-5.915-1.435l-1.151,0.702c-2.021,1.232-2.667,3.894-1.435,5.915l2.814,4.616
				C1124.625,422.193,1127.287,422.839,1129.308,421.607z"/>
			<path class="st10" d="M1115.122,431.349L1115.122,431.349c2.338-1.425,3.085-4.504,1.66-6.841l-2.112-3.465
				c-1.425-2.338-4.504-3.085-6.841-1.66l0,0c-2.338,1.425-3.085,4.504-1.66,6.841l2.112,3.465
				C1109.706,432.027,1112.784,432.774,1115.122,431.349z"/>
			<path class="st10" d="M1100.846,441.066L1100.846,441.066c2.338-1.425,3.085-4.504,1.66-6.841l-2.112-3.465
				c-1.425-2.338-4.504-3.085-6.842-1.66l0,0c-2.338,1.425-3.085,4.504-1.66,6.841l2.112,3.465
				C1095.43,441.744,1098.508,442.491,1100.846,441.066z"/>
			<path class="st10" d="M1085.192,450.224L1085.192,450.224c2.338-1.425,3.085-4.504,1.66-6.841l-2.112-3.465
				c-1.425-2.338-4.504-3.085-6.841-1.66v0c-2.338,1.425-3.085,4.504-1.66,6.841l2.112,3.465
				C1079.776,450.902,1082.854,451.649,1085.192,450.224z"/>
			<path class="st10" d="M1069.573,459.744L1069.573,459.744c2.338-1.425,3.085-4.504,1.66-6.841l-2.112-3.465
				c-1.425-2.338-4.504-3.085-6.841-1.66l0,0c-2.338,1.425-3.085,4.504-1.66,6.841l2.112,3.465
				C1064.157,460.422,1067.235,461.169,1069.573,459.744z"/>
			<path class="st10" d="M1055.083,469.288L1055.083,469.288c2.338-1.425,3.085-4.504,1.66-6.841l-2.112-3.465
				c-1.425-2.338-4.504-3.085-6.841-1.66l0,0c-2.338,1.425-3.085,4.504-1.66,6.841l2.112,3.465
				C1049.666,469.967,1052.745,470.713,1055.083,469.288z"/>
			<path class="st10" d="M1040.21,479.256L1040.21,479.256c2.338-1.425,3.085-4.504,1.66-6.841l-2.112-3.465
				c-1.425-2.338-4.504-3.085-6.841-1.66l0,0c-2.338,1.425-3.085,4.504-1.66,6.841l2.112,3.465
				C1034.794,479.934,1037.873,480.681,1040.21,479.256z"/>
			<path class="st10" d="M1025.474,488.877L1025.474,488.877c2.338-1.425,3.085-4.504,1.66-6.841l-2.112-3.465
				c-1.425-2.338-4.504-3.085-6.841-1.66l0,0c-2.338,1.425-3.085,4.504-1.66,6.841l2.112,3.465
				C1020.058,489.555,1023.136,490.302,1025.474,488.877z"/>
			<path class="st10" d="M1010.175,498.203L1010.175,498.203c2.338-1.425,3.085-4.504,1.66-6.841l-2.112-3.465
				c-1.425-2.338-4.504-3.085-6.841-1.66l0,0c-2.338,1.425-3.085,4.504-1.66,6.841l2.112,3.465
				C1004.758,498.881,1007.837,499.628,1010.175,498.203z"/>
		</g>
	</g>
	<g>
		<g>
			<g>
				<path class="st11" d="M598.87,1034.399c0,0-15.963-103.595,57.114-124.772c63.085-18.281,99.087-16.301,111.005-61.926
					c8.91,15.284-6.561,51.706-34.246,61.609c0,0,16.317,3.776,33.816-22.801c0,0-19.75,50.509-48.539,48.052
					c0,0,12.72,4.732,22.046-4.338c0,0-3.611,20.351-63.458,21.453C617.861,952.758,601.945,1010.837,598.87,1034.399z"/>
				<path class="st11" d="M644.373,975.54v30.28h67.423c0,0-5.45,35.932-67.423,37.143v77.919c0,0-31.894,1.615-37.95-40.776
					C603.193,1019.95,608.845,996.103,644.373,975.54z"/>
			</g>
			<g>
				<path class="st11" d="M743.453,998.122c0-5.394,0-12.993-0.735-18.387c-0.981-5.148-2.942-6.375-7.11-8.826
					c-2.942-1.716-6.129-2.942-6.129-6.864c0-6.62,10.296-8.091,14.955-9.316c7.355-2.452,21.329-7.109,28.929-7.109
					c11.523,0,10.052,16.671,10.052,24.025v128.466c0,3.432,0,10.297,1.226,13.483c0.98,2.207,3.432,3.433,5.394,4.413
					c3.187,1.716,5.884,3.433,5.884,7.354c0,7.846-7.355,7.846-13.239,7.846h-38.491c-5.884,0-13.239,0-13.239-7.846
					c0-3.922,2.697-5.639,5.884-7.354c1.961-0.98,4.413-2.206,5.394-4.413c1.226-3.187,1.226-10.052,1.226-13.483V998.122z"/>
				<path class="st11" d="M842.252,1015.283c6.62,0,15.445-0.735,15.445,8.091c0,6.374-8.335,5.884-8.335,17.406
					c0,13.484,3.433,31.626,7.845,44.375c2.452,6.864,10.542,27.703,19.613,27.703c14.955,0,23.045-57.613,23.045-69.136
					c0-7.601,0-10.542-6.375-14.22c-2.697-1.716-5.148-3.923-5.148-7.354c0-8.091,8.581-6.865,13.974-6.865h13.975
					c5.148,0,15.445-1.471,15.445,6.375c0,3.187-1.961,5.639-3.923,7.845c-1.471,1.962-2.452,2.942-3.187,5.394
					c-1.716,4.413-3.187,17.161-4.168,22.31c-6.374,42.169-35.548,123.808-87.278,123.808c-8.826,0-21.819-4.658-21.819-15.2
					c0-8.09,7.109-12.993,14.464-12.993c7.845,0,14.71,5.394,18.877,5.394c5.394,0,14.465-8.091,17.897-12.014
					c4.413-4.902,7.845-10.542,10.787-16.426c-3.922,0.981-7.845,1.472-11.768,1.472c-10.787,0-22.555-5.885-29.91-13.239
					c-15.2-15.69-21.819-58.594-25.006-80.168c-1.716-11.277-8.335-8.336-8.335-15.69c0-6.619,7.355-7.11,12.013-6.865H842.252z"/>
			</g>
		</g>
		<g>
			<path class="st11" d="M1103.813,1098.352c0,10.536,11.132,5.367,11.132,13.915c0,3.777-1.987,5.964-9.144,5.964h-33.397
				c-7.156,0-9.145-2.187-9.145-5.964c0-8.548,11.133-3.379,11.133-13.915v-52.481h-69.18v52.481
				c0,10.536,11.132,5.367,11.132,13.915c0,3.777-1.987,5.964-9.144,5.964h-33.397c-7.156,0-9.145-2.187-9.145-5.964
				c0-8.548,11.132-3.379,11.132-13.915V992.594c0-10.535-11.132-5.367-11.132-13.915c0-3.777,1.988-5.964,9.145-5.964h33.397
				c7.156,0,9.144,2.187,9.144,5.964c0,8.548-11.132,3.38-11.132,13.915v39.759h69.18v-39.759c0-10.535-11.133-5.367-11.133-13.915
				c0-3.777,1.988-5.964,9.145-5.964h33.397c7.156,0,9.144,2.187,9.144,5.964c0,8.548-11.132,3.38-11.132,13.915V1098.352z"/>
			<path class="st11" d="M1133.637,1118.23c-5.169,0-7.355-1.789-7.355-5.169c0-7.554,9.343-1.392,9.343-14.512v-51.486
				c0-9.741-10.734-7.555-10.734-13.519c0-2.981,2.783-4.174,5.169-4.771c2.981-0.795,18.686-7.554,24.252-7.554
				c6.163,0,7.156,4.174,7.156,15.107v62.222c0,13.12,9.344,6.958,9.344,14.512c0,3.38-2.187,5.169-7.355,5.169H1133.637z
				 M1162.063,998.16c0,8.747-6.361,13.916-16.5,13.916c-9.144,0-15.704-5.169-15.704-13.916c0-8.548,6.561-13.915,16.5-13.915
				C1155.702,984.245,1162.063,989.612,1162.063,998.16z"/>
			<path class="st11" d="M1264.639,1036.328c7.952,8.15,12.325,19.283,12.325,30.614c0,15.108-6.361,29.023-19.282,36.379
				c11.529,3.379,22.065,11.729,22.065,22.86c0,18.687-18.288,31.012-53.077,31.012c-30.415,0-45.523-6.759-45.523-17.493
				c0-9.939,12.127-15.903,20.078-15.903c3.777,0,6.561,1.192,6.561,3.578c0,1.789-1.988,3.777-1.988,6.361
				c0,3.578,3.181,8.747,21.668,8.747c20.078,0,27.234-7.157,27.234-15.108c0-7.952-6.957-13.717-14.114-16.897
				c-4.97,1.789-10.138,2.187-13.318,2.187c-28.229,0-48.505-16.698-48.505-43.734c0-31.408,20.873-47.709,51.486-47.709
				c13.518,0,27.036,1.987,40.554,1.987c10.934,0,12.325,2.783,12.325,6.361c0,4.771-2.584,6.361-10.536,6.759H1264.639z
				 M1227.862,1033.147c-12.126,0-21.668,11.53-21.668,33.397s9.542,33.396,21.668,33.396c12.127,0,21.669-11.529,21.669-33.396
				S1239.989,1033.147,1227.862,1033.147z"/>
			<path class="st11" d="M1324.875,1031.955c8.945-6.958,19.681-10.734,30.813-10.734c24.65,0,35.981,12.324,35.981,38.963v38.168
				c0,13.12,9.343,6.957,9.343,14.512c0,3.379-2.187,5.367-7.354,5.367h-29.819c-5.168,0-7.355-1.988-7.355-5.367
				c0-7.555,9.344-1.392,9.344-14.512v-36.578c0-14.313-1.193-25.843-20.277-25.843c-13.12,0-20.674,11.133-20.674,21.47v40.951
				c0,13.12,9.343,6.957,9.343,14.512c0,3.379-2.187,5.367-7.354,5.367h-29.819c-5.168,0-7.355-1.988-7.355-5.367
				c0-7.555,9.344-1.392,9.344-14.512V992.594c0-9.74-10.735-7.554-10.735-13.518c0-2.981,2.982-3.578,5.169-4.771
				c4.572-2.386,18.687-7.555,24.253-7.555c6.162,0,7.156,4.175,7.156,13.12V1031.955z"/>
		</g>
	</g>
</g>
</svg>
