<?xml version="1.0" encoding="utf-8"?>
<!-- Generator: Adobe Illustrator 21.0.0, SVG Export Plug-In . SVG Version: 6.00 Build 0)  -->
<svg version="1.1" id="Layer_1" xmlns="http://www.w3.org/2000/svg" xmlns:xlink="http://www.w3.org/1999/xlink" x="0px" y="0px"
	 viewBox="0 0 2000 1500" style="enable-background:new 0 0 2000 1500;" xml:space="preserve">
<style type="text/css">
	.st0{fill:#1A5BA6;}
	.st1{fill:#F79624;}
	.st2{fill:#A9D9E9;}
	.st3{fill:#4D4D4D;}
	.st4{fill:#999999;}
	.st5{fill:#FFFFFF;}
	.st6{fill:#1C3192;}
	.st7{opacity:0.48;fill:#DFDBCC;}
	.st8{fill:#B3B3B3;}
</style>
<g>
	<g>
		<path class="st0" d="M1191.717,496.122c-30.142,8.578-60.234,17.104-90.385,25.175c-63.002,16.806-126.24,32.045-189.931,42.451
			c-7.96,1.228-15.891,2.607-23.88,3.633l-11.957,1.614l-11.962,1.386c-15.932,1.848-31.925,3.19-47.854,3.922
			c-31.834,1.439-63.787,0.801-94.404-5.136c-15.246-3.033-30.238-7.238-43.984-13.75c-13.744-6.41-26.369-15.099-35.605-26.697
			c-9.209-11.472-14.809-26.186-13.649-41.318c0.203-2.438,0.584-4.879,1.169-7.274c15.908-6.714,32.65-8.604,47.837-4.758
			c-15.787-151.77,188.466-204.122,238.09-132.896c81.076-63.768,231.846-4.755,205.409,127.602
			C1149.825,471.886,1173.652,481.714,1191.717,496.122z"/>
		<path class="st0" d="M1113.637,730.386c-25.014,6.285-131.179,7.755-212.481,7.933c4.334-1.115,8.642-2.256,12.976-3.371
			c78.591-21.263,154.292-51.067,227.738-85.003c9.174-4.258,18.349-8.515,27.422-12.951c9.073-4.435,18.247-8.693,27.219-13.382
			l15.308-7.831C1225.225,670.22,1194.458,730.386,1113.637,730.386z"/>
		<g>
			<path class="st1" d="M1238.292,499.941c-14.005,7.419-28.112,14.671-42.405,21.441c-7.132,3.47-14.29,6.867-21.5,10.169
				l-18.127,8.135l-3.534,1.6c-29.028,12.7-58.499,24.488-88.342,35.312l-22.474,7.932l-22.66,7.426
				c-15.133,4.895-30.401,9.379-45.749,13.671c-15.347,4.292-30.832,8.1-46.37,11.764c-7.795,1.784-15.645,3.35-23.444,5.037
				c-7.877,1.494-15.727,3.085-23.609,4.433c-7.934,1.252-15.814,2.649-23.778,3.706l-11.944,1.648l-11.978,1.356
				c-16.018,1.607-32.117,2.972-48.323,3.243c-16.181,0.319-32.452,0.081-48.716-1.426c-16.284-1.384-32.581-3.963-48.636-8.134
				c-4.009-1.092-8.016-2.086-11.961-3.472c-1.971-0.644-3.966-1.264-5.939-1.957l-5.873-2.203
				c-7.778-3.069-15.471-6.506-22.778-10.858c-7.306-4.303-14.384-9.126-20.785-14.896c-6.354-5.797-12.145-12.342-16.769-19.706
				c-4.599-7.364-8.028-15.521-9.786-24.024c-0.506-2.105-0.673-4.295-1.009-6.43c-0.093-2.167-0.381-4.304-0.279-6.477
				c-0.088-4.313,0.53-8.624,1.471-12.799c0.063-0.319,0.15-0.663,0.237-0.983c0.927-3.833,2.419-7.514,4.186-10.984
				c1.928-3.792,4.401-7.309,7.404-10.257c5.931-5.943,14.225-9.694,22.223-8.9c-7.939,1.082-14.543,5.827-18.64,11.931
				c-2.894,4.067-4.795,8.711-5.861,13.524c-0.536,2.309-0.876,4.661-1.045,7.007c-0.951,14.563,4.593,28.651,13.572,39.582
				c9.008,11.052,21.242,19.271,34.527,25.286c13.289,6.112,27.75,9.993,42.443,12.744c29.505,5.378,60.237,5.644,90.833,3.915
				c15.31-0.877,30.674-2.341,45.974-4.29l11.487-1.462l11.48-1.682c7.671-1.073,15.283-2.485,22.924-3.752
				c61.132-10.697,121.775-26.037,182.175-42.88c28.906-8.088,57.749-16.613,86.64-25.188c1.28-0.382,2.584-0.765,3.865-1.147
				l45.337-13.584c7.587-2.192,15.147-4.456,22.705-6.793C1223.07,504.351,1230.629,502.038,1238.292,499.941z"/>
			<path class="st1" d="M1315.663,500.749c-32.307,21.534-65.409,41.825-98.896,61.519l-25.34,14.412l-11.023,6.105l-14.474,7.995
				c-8.48,4.781-17.168,9.153-25.753,13.694c-8.585,4.54-17.273,8.913-25.961,13.286c-69.557,34.862-141.407,65.821-216.295,88.66
				c-4.131,1.204-8.238,2.432-12.369,3.636c-0.024,0.001-0.024,0.001-0.024,0.001c-5.267,1.533-10.535,3.042-15.831,4.429
				c-9.427,2.616-18.959,4.968-28.494,7.246c-19.101,4.338-38.335,8.339-57.825,11.153c-19.467,2.789-39.081,4.802-58.831,5.601
				c-19.723,0.871-39.565,0.331-59.315-1.943c-19.724-2.226-39.361-6.308-58.228-13.023c-18.752-6.914-36.921-16.212-52.239-29.429
				c-7.598-6.586-14.516-14.047-20.218-22.351c-5.654-8.33-10.26-17.45-12.957-27.118c-1.349-4.858-2.214-9.805-2.641-14.815
				c-0.329-4.988-0.172-10.016,0.695-14.945c0.844-4.904,2.422-9.733,4.869-14.054c2.423-4.32,5.74-8.132,9.85-10.774
				c-7.504,6.335-11.028,15.908-11.633,25.242c-0.338,4.692-0.091,9.391,0.617,14.026c0.854,4.63,2.047,9.152,3.698,13.537
				c3.374,8.72,8.167,16.833,13.958,24.111c5.815,7.277,12.7,13.666,20.143,19.232c14.867,11.28,32.206,19.02,50.106,24.449
				c18.039,5.205,36.652,8.539,55.517,9.793c37.754,2.555,75.939-0.537,113.53-6.95c0.873-0.15,1.77-0.3,2.643-0.474
				c0.025,0.024,0.024-0.001,0.049-0.002c36.714-6.41,73.046-15.587,108.886-26.48c9.176-2.828,18.35-5.704,27.473-8.676
				c9.093-3.142,18.242-6.042,27.256-9.377c9.067-3.19,18.158-6.381,27.144-9.836l13.494-5.062l13.464-5.256l13.464-5.256
				l13.384-5.449c8.932-3.6,17.81-7.369,26.662-11.162l13.303-5.714l13.225-5.858l13.276-5.787l13.172-5.978
				c8.823-3.963,17.621-7.949,26.315-12.126l26.234-12.368l16.5-7.913l9.655-4.623l26.025-12.824
				C1246.661,536.154,1281.035,518.309,1315.663,500.749z"/>
			<path class="st1" d="M1151.021,565.895c-50.832,26.341-103.401,49.422-157.454,68.819c-26.971,9.88-54.395,18.579-82.169,26.24
				c-13.874,3.855-27.885,7.226-41.949,10.478c-14.119,3.034-28.267,5.946-42.556,8.254c-28.551,4.687-57.52,7.73-86.703,7.877
				c-14.579,0.073-29.228-0.509-43.814-2.167c-14.584-1.609-29.13-4.316-43.354-8.399c-14.222-4.035-28.196-9.467-41.161-16.906
				c-12.871-7.564-24.897-16.911-34.389-28.606c-9.418-11.673-16.295-25.524-18.834-40.195c-1.16-7.327-1.422-14.805-0.189-22.062
				c1.283-7.185,3.808-14.434,8.761-19.712c-3.979,6.003-5.435,13.121-5.654,20.028c-0.291,6.959,0.782,13.874,2.675,20.471
				c3.979,13.187,11.283,25.098,20.855,34.742c9.43,9.771,20.914,17.404,33.149,23.354c6.187,2.851,12.488,5.48,18.971,7.687
				c6.506,2.158,13.102,4.07,19.854,5.538c26.913,5.923,54.88,7.424,82.772,6.537c13.957-0.468,27.95-1.352,41.895-2.966
				c13.949-1.492,27.911-3.35,41.782-5.742c55.622-9.132,110.51-23.728,164.958-39.87
				C1042.936,602.981,1096.79,584.273,1151.021,565.895z"/>
		</g>
		<g>
			<g>
				<path class="st2" d="M1267.778,520.163c-3.486-11.31-45.129-31.233-54.771,11.159c0,0-21.522-5.487-26.387,21.017
					c-27.574,4.085-8.951,39.105,10.466,18.336c0,0,21.486,9.801,31.279-10.69c0,0,32.391,15.2,42.99-22.538
					c17.486,12.09,24.92-3.775,24.986-12.07C1296.39,519.116,1282.25,504.025,1267.778,520.163z"/>
				<path class="st2" d="M1602.088,358.524c-5.103-14.146-59.151-36.936-68.848,17.446c0,0-27.645-5.675-32.231,28.257
					c-34.753,6.837-9.017,50.169,14.383,22.645c0,0,27.858,11.151,39.059-15.443c0,0,42.023,17.351,53.213-31.183
					c22.918,14.297,31.403-6.285,30.989-16.817C1638.34,355.48,1619.488,337.173,1602.088,358.524z"/>
				<path class="st2" d="M1488.977,319.759c0,0-15.372-14.36-35.236,3.452c-13.97-20.964-66.778-6.763-54.843,33.186
					c0,0-22.421,3.878-25.093,26.177l58.606-2.325l22.958-21.821L1488.977,319.759z"/>
			</g>
			<path class="st3" d="M1481.477,466.15c18.513-8.77,7.578-34.09,2.485-42.307l4.025-6.734
				c10.787-13.015,122.887-54.092,126.168-89.266c3.64-39.027-45.893-28.261-48.903-29.284c0,0-25.325-9.396-38.711-4.295
				c-13.386,5.101-112.472,76.316-112.472,76.316s-34.872,4.571-72.344,14.837c-22.393,12.974-31.227,22.164-31.227,22.164
				l44.547,2.861c0,0-69.315,53.258-86.391,60.85c-17.075,7.592-66.873-20.013-90.691,2.518
				c-21.109,7.452-21.089,12.712-21.089,12.712s52.496,22.658,56.961,26.088c2.437,8.381,15.488,16.04,21.237,13.948
				c-6.343,12.878-14.088,25.271-14.088,25.271s18.94,1.533,43.697-29.152c6.58-0.862,12.275,1.737,30.579-6.686
				c18.305-8.423,72.302-35.579,72.302-35.579l-38.997,85.424c0,0,26.092-0.074,48.194-20.372
				c10.043-9.224,25.257-26.449,39.591-44.165L1481.477,466.15z"/>
			<path class="st4" d="M1177.964,473.81c-21.109,7.452-21.089,12.712-21.089,12.712s52.496,22.658,56.961,26.088
				c2.437,8.381,15.488,16.04,21.237,13.948c-6.343,12.878-14.088,25.271-14.088,25.271s18.94,1.533,43.697-29.152
				c0,0,3.592-4.933,6.318-7.967c6.026-1.682,84.847-43.693,105.514-56.218l-8.95,21.921l-38.997,85.424
				c0,0,26.092-0.074,48.194-20.372c22.102-20.298,69.242-79.35,76.955-97.093c-5.168,16.74,8.228,27.031,27.763,17.777
				c18.513-8.77,7.578-34.09,2.485-42.307c0,0-5.589-8.597-13.98-7.943l5.357-3.379c0,0,136.27-70.066,138.817-84.677
				c4.82-38.111-45.893-28.261-48.903-29.284c0,0-25.325-9.396-38.711-4.295c-13.386,5.101-112.472,76.316-112.472,76.316
				l-59.025,39.862c0,0-69.315,53.258-86.391,60.85C1251.579,478.885,1201.781,451.28,1177.964,473.81
				c-21.109,7.452-21.089,12.712-21.089,12.712"/>
			<path class="st5" d="M1564.361,305.368c0,0-25.031-10.55-33.458-6.769c-8.428,3.782-248.812,171.377-265.093,183.327
				c-14.554-2.108-65.22-14.206-77.042-9.087l72.424,35.124c19.63,6.797,90.204-47.073,121.363-57.85l-42.54,107.751
				c0,0,31.691-13.524,41.982-26.92c10.291-13.396,66.859-106.031,80.466-124.77c14.375-9.469,131.699-65.858,138.982-93.623
				C1604.716,300.079,1572.084,303.018,1564.361,305.368z"/>
			<path class="st6" d="M1564.361,305.368l-29.074,19.874c0,0-8.664-8.234-2.07-15.791s12.821-10.17,12.821-10.17L1564.361,305.368z
				"/>
			<path class="st6" d="M1256.279,521.548l-20.077,10.217l-10.109,17.559C1226.093,549.323,1249.519,538.05,1256.279,521.548z"/>
			<path class="st6" d="M1528.627,349.316c0,0-246.897,156.351-269.65,157.575c-4.021,4.568-52.744-13.139-83.822-25.573
				c0,0,7.382-7.305,13.613-8.477c0,0,72.281,20.419,78.63,17.802c6.35-2.617,214.618-136.108,231.97-143.291
				S1526.47,346.476,1528.627,349.316z"/>
			<path class="st7" d="M1519.243,349.208c0,0-246.654,147.001-250.81,149.33c-4.156,2.33-61.559-16.917-61.559-16.917
				l60.546,12.588c0,0,228.288-144.147,233.171-144.341S1512.297,343.872,1519.243,349.208z"/>
			<g>
				<path class="st8" d="M1494.436,353.94L1494.436,353.94c2.195-1.302,2.926-4.163,1.624-6.358l-1.929-3.254
					c-1.302-2.195-4.162-2.926-6.358-1.624l0,0c-2.195,1.302-2.926,4.162-1.625,6.358l1.929,3.254
					C1489.38,354.51,1492.241,355.241,1494.436,353.94z"/>
				<path class="st8" d="M1480.953,363.404L1480.953,363.404c2.195-1.302,2.926-4.163,1.625-6.358l-1.929-3.254
					c-1.302-2.195-4.162-2.926-6.358-1.624l0,0c-2.195,1.302-2.926,4.162-1.624,6.358l1.929,3.254
					C1475.897,363.974,1478.757,364.705,1480.953,363.404z"/>
				<path class="st8" d="M1467.469,372.868L1467.469,372.868c2.195-1.302,2.926-4.163,1.624-6.358l-1.929-3.254
					c-1.302-2.195-4.162-2.926-6.358-1.624l0,0c-2.195,1.302-2.926,4.162-1.625,6.358l1.929,3.254
					C1462.413,373.438,1465.274,374.169,1467.469,372.868z"/>
				<path class="st8" d="M1453.986,382.332L1453.986,382.332c2.195-1.302,2.926-4.163,1.625-6.358l-1.929-3.254
					c-1.302-2.195-4.162-2.926-6.358-1.624l0,0c-2.195,1.302-2.926,4.162-1.624,6.358l1.929,3.254
					C1448.93,382.902,1451.791,383.633,1453.986,382.332z"/>
				<path class="st8" d="M1440.503,391.796L1440.503,391.796c2.195-1.302,2.926-4.163,1.624-6.358l-1.929-3.254
					c-1.302-2.195-4.162-2.926-6.358-1.624l0,0c-2.195,1.302-2.926,4.162-1.625,6.358l1.929,3.254
					C1435.447,392.366,1438.307,393.097,1440.503,391.796z"/>
				<path class="st8" d="M1424.285,398.272L1424.285,398.272c2.195-1.302,2.926-4.163,1.625-6.358l-1.929-3.254
					c-1.302-2.195-4.162-2.926-6.358-1.624l0,0c-2.195,1.302-2.926,4.162-1.624,6.358l1.929,3.254
					C1419.229,398.843,1422.09,399.574,1424.285,398.272z"/>
				<path class="st8" d="M1409.617,406.97l1.081-0.641c1.898-1.125,2.53-3.599,1.405-5.497l-2.57-4.335
					c-1.125-1.898-3.599-2.53-5.497-1.405l-1.081,0.641c-1.898,1.125-2.53,3.599-1.404,5.497l2.57,4.335
					C1405.246,407.463,1407.719,408.095,1409.617,406.97z"/>
				<path class="st8" d="M1396.285,415.888L1396.285,415.888c2.195-1.302,2.926-4.162,1.625-6.358l-1.929-3.254
					c-1.302-2.195-4.162-2.926-6.358-1.624l0,0c-2.195,1.302-2.926,4.162-1.625,6.358l1.929,3.254
					C1391.229,416.459,1394.09,417.19,1396.285,415.888z"/>
				<path class="st8" d="M1382.869,424.783L1382.869,424.783c2.195-1.302,2.926-4.162,1.625-6.358l-1.929-3.254
					c-1.302-2.195-4.162-2.926-6.358-1.624l0,0c-2.195,1.302-2.926,4.162-1.624,6.358l1.929,3.254
					C1377.813,425.354,1380.674,426.085,1382.869,424.783z"/>
				<path class="st8" d="M1368.175,433.14L1368.175,433.14c2.195-1.302,2.926-4.162,1.625-6.358l-1.929-3.254
					c-1.302-2.195-4.162-2.926-6.358-1.624l0,0c-2.195,1.302-2.926,4.162-1.624,6.358l1.929,3.254
					C1363.119,433.711,1365.98,434.442,1368.175,433.14z"/>
				<path class="st8" d="M1353.51,441.836L1353.51,441.836c2.195-1.302,2.926-4.162,1.625-6.358l-1.929-3.254
					c-1.302-2.195-4.162-2.926-6.358-1.624l0,0c-2.195,1.302-2.926,4.162-1.624,6.358l1.929,3.254
					C1348.454,442.407,1351.315,443.138,1353.51,441.836z"/>
				<path class="st8" d="M1339.896,450.567L1339.896,450.567c2.195-1.302,2.926-4.162,1.625-6.358l-1.929-3.254
					c-1.302-2.195-4.162-2.926-6.358-1.624l0,0c-2.195,1.302-2.926,4.162-1.624,6.358l1.929,3.254
					C1334.84,451.138,1337.701,451.869,1339.896,450.567z"/>
				<path class="st8" d="M1325.922,459.688L1325.922,459.688c2.195-1.302,2.926-4.162,1.625-6.358l-1.929-3.254
					c-1.302-2.195-4.162-2.926-6.358-1.624l0,0c-2.195,1.302-2.926,4.162-1.624,6.358l1.929,3.254
					C1320.866,460.258,1323.727,460.989,1325.922,459.688z"/>
				<path class="st8" d="M1312.078,468.488L1312.078,468.488c2.195-1.302,2.926-4.163,1.625-6.358l-1.929-3.254
					c-1.302-2.195-4.162-2.926-6.358-1.624l0,0c-2.195,1.302-2.926,4.162-1.625,6.358l1.929,3.254
					C1307.022,469.058,1309.883,469.789,1312.078,468.488z"/>
				<path class="st8" d="M1297.713,477.006L1297.713,477.006c2.195-1.302,2.926-4.162,1.625-6.358l-1.929-3.254
					c-1.302-2.195-4.162-2.926-6.358-1.624l0,0c-2.195,1.302-2.926,4.162-1.624,6.358l1.929,3.254
					C1292.657,477.576,1295.518,478.307,1297.713,477.006z"/>
			</g>
		</g>
	</g>
	<g>
		<g>
			<g>
				<path class="st0" d="M363.21,993.314c0,0-20.304-131.774,72.65-158.712c80.244-23.254,126.04-20.735,141.2-78.77
					c11.333,19.441-8.346,65.771-43.561,78.367c0,0,20.756,4.803,43.014-29.003c0,0-25.122,64.248-61.743,61.123
					c0,0,16.18,6.019,28.043-5.518c0,0-4.593,25.887-80.719,27.288C387.367,889.466,367.122,963.343,363.21,993.314z"/>
				<path class="st0" d="M421.091,918.444v38.516h85.762c0,0-6.933,45.706-85.762,47.246v99.114c0,0-40.57,2.054-48.273-51.868
					C368.709,974.934,375.899,944.6,421.091,918.444z"/>
			</g>
			<g>
				<path class="st0" d="M547.121,947.163c0-6.861,0-16.529-0.936-23.39c-1.248-6.549-3.742-8.108-9.044-11.228
					c-3.742-2.183-7.796-3.742-7.796-8.731c0-8.42,13.098-10.292,19.023-11.851c9.356-3.119,27.132-9.044,36.799-9.044
					c14.657,0,12.786,21.206,12.786,30.562v163.415c0,4.365,0,13.098,1.56,17.152c1.247,2.807,4.366,4.365,6.861,5.613
					c4.054,2.183,7.484,4.365,7.484,9.355c0,9.979-9.355,9.979-16.84,9.979h-48.962c-7.484,0-16.84,0-16.84-9.979
					c0-4.99,3.431-7.173,7.485-9.355c2.495-1.248,5.613-2.807,6.861-5.613c1.559-4.055,1.559-12.787,1.559-17.152V947.163z"/>
				<path class="st0" d="M672.796,968.993c8.42,0,19.647-0.936,19.647,10.291c0,8.108-10.603,7.484-10.603,22.142
					c0,17.152,4.366,40.23,9.979,56.447c3.119,8.731,13.41,35.239,24.949,35.239c19.023,0,29.315-73.286,29.315-87.943
					c0-9.668,0-13.41-8.108-18.088c-3.431-2.184-6.549-4.99-6.549-9.356c0-10.291,10.915-8.731,17.776-8.731h17.776
					c6.549,0,19.647-1.871,19.647,8.108c0,4.054-2.495,7.172-4.99,9.979c-1.871,2.494-3.119,3.742-4.054,6.86
					c-2.183,5.613-4.054,21.83-5.302,28.379c-8.108,53.641-45.219,157.489-111.021,157.489c-11.227,0-27.756-5.925-27.756-19.335
					c0-10.292,9.044-16.529,18.4-16.529c9.979,0,18.711,6.861,24.013,6.861c6.861,0,18.399-10.291,22.766-15.281
					c5.613-6.237,9.979-13.41,13.722-20.895c-4.99,1.248-9.979,1.871-14.969,1.871c-13.722,0-28.691-7.484-38.047-16.84
					c-19.335-19.959-27.755-74.534-31.81-101.979c-2.183-14.346-10.603-10.603-10.603-19.959c0-8.42,9.356-9.044,15.281-8.731
					H672.796z"/>
			</g>
		</g>
		<g>
			<path class="st0" d="M1005.506,1074.662c0,13.402,14.16,6.828,14.16,17.701c0,4.805-2.528,7.586-11.632,7.586h-42.482
				c-9.104,0-11.632-2.781-11.632-7.586c0-10.873,14.161-4.299,14.161-17.701v-66.757h-87.999v66.757
				c0,13.402,14.161,6.828,14.161,17.701c0,4.805-2.529,7.586-11.632,7.586h-42.482c-9.104,0-11.632-2.781-11.632-7.586
				c0-10.873,14.161-4.299,14.161-17.701V940.137c0-13.402-14.161-6.828-14.161-17.701c0-4.805,2.528-7.586,11.632-7.586h42.482
				c9.103,0,11.632,2.781,11.632,7.586c0,10.873-14.161,4.299-14.161,17.701v50.573h87.999v-50.573
				c0-13.402-14.161-6.828-14.161-17.701c0-4.805,2.528-7.586,11.632-7.586h42.482c9.104,0,11.632,2.781,11.632,7.586
				c0,10.873-14.16,4.299-14.16,17.701V1074.662z"/>
			<path class="st0" d="M1043.438,1099.949c-6.575,0-9.356-2.275-9.356-6.574c0-9.609,11.885-1.771,11.885-18.46v-65.493
				c0-12.391-13.654-9.608-13.654-17.194c0-3.793,3.54-5.311,6.574-6.069c3.793-1.012,23.77-9.609,30.85-9.609
				c7.839,0,9.104,5.311,9.104,19.219v79.147c0,16.689,11.885,8.851,11.885,18.46c0,4.299-2.781,6.574-9.356,6.574H1043.438z
				 M1079.598,947.217c0,11.126-8.092,17.7-20.988,17.7c-11.632,0-19.977-6.574-19.977-17.7c0-10.874,8.345-17.701,20.988-17.701
				C1071.506,929.516,1079.598,936.343,1079.598,947.217z"/>
			<path class="st0" d="M1210.076,995.768c10.114,10.367,15.678,24.528,15.678,38.941c0,19.218-8.092,36.919-24.528,46.275
				c14.666,4.299,28.068,14.919,28.068,29.08c0,23.77-23.265,39.447-67.517,39.447c-38.688,0-57.906-8.598-57.906-22.253
				c0-12.644,15.425-20.229,25.539-20.229c4.805,0,8.345,1.518,8.345,4.552c0,2.276-2.528,4.805-2.528,8.092
				c0,4.552,4.046,11.126,27.563,11.126c25.54,0,34.644-9.103,34.644-19.218c0-10.114-8.851-17.448-17.954-21.494
				c-6.321,2.276-12.896,2.782-16.942,2.782c-35.907,0-61.7-21.241-61.7-55.631c0-39.954,26.552-60.689,65.493-60.689
				c17.195,0,34.391,2.529,51.586,2.529c13.907,0,15.678,3.54,15.678,8.092c0,6.068-3.288,8.092-13.402,8.598H1210.076z
				 M1163.295,991.722c-15.425,0-27.563,14.666-27.563,42.481s12.138,42.482,27.563,42.482s27.563-14.667,27.563-42.482
				S1178.72,991.722,1163.295,991.722z"/>
			<path class="st0" d="M1286.696,990.204c11.379-8.851,25.033-13.655,39.194-13.655c31.355,0,45.77,15.679,45.77,49.563v48.551
				c0,16.689,11.885,8.851,11.885,18.46c0,4.299-2.782,6.827-9.356,6.827h-37.931c-6.574,0-9.355-2.528-9.355-6.827
				c0-9.609,11.885-1.771,11.885-18.46v-46.527c0-18.207-1.518-32.873-25.793-32.873c-16.689,0-26.298,14.16-26.298,27.31v52.091
				c0,16.689,11.885,8.851,11.885,18.46c0,4.299-2.782,6.827-9.356,6.827h-37.931c-6.574,0-9.355-2.528-9.355-6.827
				c0-9.609,11.885-1.771,11.885-18.46V940.137c0-12.391-13.655-9.609-13.655-17.195c0-3.793,3.793-4.552,6.574-6.069
				c5.816-3.034,23.771-9.608,30.851-9.608c7.839,0,9.104,5.31,9.104,16.689V990.204z"/>
		</g>
	</g>
</g>
</svg>
